<svg xmlns="http://www.w3.org/2000/svg" width="180" height="80" viewBox="0 0 135 60"><g fill="#fff"><path d="M.535 55.605a.466.466 0 01-.344-.14.472.472 0 01-.144-.352c0-.05.004-.105.015-.156l4.946-14.176c.05-.191.164-.36.332-.508.156-.148.379-.222.664-.222h4.785c.285 0 .504.074.664.222.168.149.277.317.328.508l4.946 14.176c.011.05.015.105.015.156a.483.483 0 01-.488.492h-4.09c-.445 0-.726-.183-.855-.554l-.536-1.461H6.02l-.54 1.46c-.125.372-.41.555-.851.555zm7.852-10.492L7.14 49.258h2.511zm9.953 10.492a.592.592 0 01-.43-.171.599.599 0 01-.172-.43V44.656a.592.592 0 01.602-.605h5.683c3.844 0 5.766 1.152 5.766 3.46 0 .868-.336 1.587-1.012 2.16.465.286.825.614 1.075.985.253.38.378.852.378 1.41 0 1.114-.468 1.98-1.406 2.606-.933.621-2.387.933-4.36.933zm4.36-7.378h1.546c.274 0 .473-.043.598-.13.129-.074.191-.214.191-.425 0-.203-.07-.352-.207-.445-.125-.086-.32-.13-.582-.13H22.7zm0 4.332h1.546c.262 0 .457-.043.582-.125.137-.075.207-.22.207-.43 0-.203-.07-.348-.207-.445-.125-.086-.32-.125-.582-.125H22.7zm12.745 3.046a.56.56 0 01-.41-.171.587.587 0 01-.176-.43V47.94h-2.953a.55.55 0 01-.41-.175.58.58 0 01-.176-.43v-2.68a.58.58 0 01.176-.43.55.55 0 01.41-.175h10.946c.168 0 .312.058.425.176a.58.58 0 01.176.43v2.679a.58.58 0 01-.176.43.572.572 0 01-.425.175h-2.938v7.063a.599.599 0 01-.172.43.599.599 0 01-.43.171zm15.446.223c-4.055 0-6.192-1.648-6.41-4.953-.024-.219-.036-.57-.036-1.047 0-.476.012-.824.035-1.047.094-1.61.704-2.836 1.833-3.683 1.113-.844 2.64-1.27 4.578-1.27 1.93 0 3.449.426 4.566 1.27 1.125.847 1.742 2.074 1.848 3.683.02.446.03.793.03 1.047 0 .254-.01.606-.03 1.047-.223 3.305-2.36 4.953-6.414 4.953zm0-3.555c.39 0 .648-.105.773-.316.117-.223.191-.621.223-1.191.011-.149.015-.461.015-.938 0-.476-.004-.789-.015-.937-.055-.559-.137-.95-.254-1.172-.113-.223-.363-.336-.742-.336-.391 0-.641.113-.758.336-.117.222-.196.613-.238 1.172l-.032.937.032.938c.023.57.097.968.222 1.191.117.211.375.316.774.316zm8.687 3.332a.59.59 0 01-.598-.601V44.656c0-.172.055-.312.172-.43a.578.578 0 01.426-.175h11.324c.16 0 .297.058.414.176a.592.592 0 01.172.43v10.347a.599.599 0 01-.172.43.576.576 0 01-.414.171h-3.965a.63.63 0 01-.425-.171.599.599 0 01-.172-.43V47.94h-2.211v7.063a.587.587 0 01-.176.43.583.583 0 01-.426.171zm14.66 4.223c-.16 0-.3-.058-.43-.172a.599.599 0 01-.171-.43v-14.57c0-.172.058-.312.172-.43a.62.62 0 01.43-.175h3.757c.156 0 .3.058.426.176a.58.58 0 01.176.43v.663a3.57 3.57 0 011.355-1.093c.547-.266 1.188-.399 1.914-.399 1.367 0 2.473.414 3.317 1.238.84.836 1.3 2.133 1.375 3.891a24.315 24.315 0 010 1.762c-.067 1.672-.528 2.941-1.391 3.808-.863.868-1.965 1.301-3.3 1.301-1.34 0-2.317-.445-2.942-1.332v4.73a.583.583 0 01-.172.43.624.624 0 01-.426.172zm5.797-7.984c.38 0 .645-.098.805-.301.156-.211.258-.54.3-.984.032-.297.047-.54.047-.73 0-.192-.015-.434-.046-.731-.043-.442-.145-.77-.301-.985-.16-.199-.426-.3-.805-.3-.39 0-.664.105-.824.316-.156.215-.25.535-.285.969-.02.222-.031.5-.031.828 0 .316.011.586.03.808.036.371.134.649.302.84.168.18.437.27.808.27zm14.324 3.984c-4.054 0-6.191-1.648-6.414-4.953-.007-.219-.015-.57-.015-1.047 0-.476.007-.824.015-1.047.106-1.61.72-2.836 1.832-3.683 1.13-.844 2.657-1.27 4.582-1.27 1.926 0 3.454.426 4.582 1.27 1.114.847 1.727 2.074 1.832 3.683.032.446.047.793.047 1.047 0 .254-.015.606-.047 1.047-.222 3.305-2.359 4.953-6.414 4.953zm0-3.555c.399 0 .657-.105.774-.316.117-.223.191-.621.222-1.191.008-.149.016-.461.016-.938 0-.476-.008-.789-.016-.937-.043-.559-.12-.95-.238-1.172-.125-.223-.379-.336-.758-.336s-.632.113-.757.336c-.118.222-.196.613-.239 1.172l-.015.937.015.938c.032.57.106.968.223 1.191.117.211.375.316.773.316zm14.88 7.555a.574.574 0 01-.41-.172.572.572 0 01-.192-.43v-3.62c-4.106 0-6.27-1.575-6.492-4.731-.02-.242-.032-.59-.032-1.047 0-.476.012-.824.032-1.047.105-1.535.722-2.707 1.851-3.523 1.137-.805 2.684-1.207 4.64-1.207v-3.617c0-.172.067-.313.192-.43a.562.562 0 01.41-.176h3.965c.156 0 .293.059.41.176a.566.566 0 01.192.43v3.617c1.957 0 3.504.402 4.64 1.207 1.13.816 1.746 1.988 1.848 3.523.035.446.05.793.05 1.047 0 .223-.015.574-.05 1.047-.219 3.156-2.383 4.73-6.488 4.73v3.622a.572.572 0 01-.192.43.574.574 0 01-.41.171zm-.555-7.777v-4.446c-.524 0-.887.118-1.09.352-.2.223-.313.605-.344 1.156l-.02.73.02.7c.063.602.188 1.004.379 1.207.187.2.539.3 1.055.3zm5.07 0c.527 0 .887-.106 1.074-.317.203-.203.324-.597.363-1.191.012-.117.016-.348.016-.7 0-.37-.004-.613-.016-.73-.03-.558-.152-.949-.363-1.172-.2-.222-.555-.336-1.074-.336zm20.613-8a.55.55 0 01.41.176.58.58 0 01.176.43v10.347a.587.587 0 01-.176.43.56.56 0 01-.41.171h-3.965a.63.63 0 01-.425-.171.599.599 0 01-.172-.43v-4.508l-3.067 4.73c-.168.254-.383.38-.648.38h-3.52a.56.56 0 01-.41-.172.587.587 0 01-.176-.43V44.656a.58.58 0 01.176-.43.55.55 0 01.41-.175h3.965c.156 0 .297.058.426.176a.592.592 0 01.172.43v4.507l3.066-4.73c.168-.254.383-.383.649-.383zm0 0M64.55 17.883c.973 0 1.825-.656 2.079-1.598a2.166 2.166 0 00-1.004-2.43 2.141 2.141 0 00-2.594.344c-.84.844-.84 2.211 0 3.051.403.406.95.637 1.52.633zm-.98-3.145a1.38 1.38 0 011.961 0c.262.262.41.617.406.989 0 .37-.144.722-.406.984a1.38 1.38 0 01-1.96 0 1.383 1.383 0 01-.41-.984c0-.372.148-.727.41-.989zm-1.996 4.102a1.52 1.52 0 00-2.148 0l-7.344 7.383a1.528 1.528 0 000 2.156l4.938 4.965c.285.285.671.449 1.074.445.39 0 .781-.148 1.074-.445l7.348-7.38a1.54 1.54 0 000-2.16zm-2.941 13.965a.756.756 0 01-1.074 0l-4.942-4.965a.77.77 0 01-.219-.54c0-.202.079-.398.22-.538l3.405-3.422.98.988-.362.367 4.05 4.07.364-.367.984.985zm-.918-8.11l.191-.195 2.977 2.992-.192.192zm8.262.73l-3.403 3.419-.984-.985.367-.367-4.05-4.07-.368.363-.98-.984 3.402-3.422a.756.756 0 01.539-.223.74.74 0 01.535.223l4.942 4.965a.769.769 0 010 1.082zM85.53 2.212L83.821.492a.76.76 0 00-1.074 0l-12.09 12.149a.215.215 0 01-.028.035l-.762-.766-2.023 2.035-.61-.61a3.764 3.764 0 00-2.683-1.112 3.764 3.764 0 00-2.684 1.113l-11.086 11.14a3.838 3.838 0 000 5.395l4.754 4.781a3.796 3.796 0 005.371 0l11.086-11.14a3.843 3.843 0 000-5.399l-.605-.605 2.023-2.035-.004-.004c.012-.012.024-.02.035-.028L85.531 3.29a.764.764 0 000-1.078zM71.453 18.656a3.067 3.067 0 010 4.317l-11.082 11.14a3.013 3.013 0 01-2.148.887 3 3 0 01-2.149-.887l-4.758-4.781a3.03 3.03 0 01-.882-2.16 3.027 3.027 0 01.882-2.156l11.086-11.141a3.007 3.007 0 012.149-.89 3.01 3.01 0 012.148.89zm-.574-1.718l-2.469-2.485 1.457-1.465 2.469 2.485zm2.023-2.036l-1.707-1.718L83.281 1.03h.004l.711.719-2.23 2.242-.508-.508-1.39 1.399v1.015l-1.805 1.813H77.05l-.727.734v1.016l-3.168 3.18-.234-.239-.54.54.774.78 3.926-3.945V8.762l.285-.285h1.012l2.246-2.262V5.199l.633-.636.508.507 2.77-2.78.46.46zm-17.21 12.27c-.7.703-.7 1.844 0 2.547.699.703 1.831.703 2.53 0l-2.109-2.121a1.188 1.188 0 011.688 0 1.205 1.205 0 010 1.695l.422.426c.699-.703.699-1.844 0-2.547-.7-.7-1.832-.7-2.532 0zm1.218 2.308a1.028 1.028 0 01-.984-.988zm3.715-7.27l.426.427a1.188 1.188 0 011.687 0 1.205 1.205 0 010 1.695l-.254.254-2.109-2.121a1.808 1.808 0 00-.39 1.96c.277.673.93 1.114 1.656 1.114.39-.004.77-.137 1.078-.375l.02.016.421-.422a1.816 1.816 0 000-2.547c-.703-.7-1.836-.7-2.535 0zm.285 2.263a1.038 1.038 0 01-.3-.688l.984.988a1.01 1.01 0 01-.684-.3zm0 0"/></g></svg>