<svg xmlns="http://www.w3.org/2000/svg" width="352" height="55pt" viewBox="0 0 264 55"><g fill="#fff"><path d="M66.875 36.277a.72.72 0 01-.516-.218.694.694 0 01-.218-.493c0-.144.015-.25.05-.316l7.973-21.957c.227-.668.684-1.004 1.367-1.004h5.332c.688 0 1.145.336 1.371 1.004l7.973 21.957c.035.066.05.172.05.316 0 .18-.073.344-.222.493a.704.704 0 01-.512.218H85.07c-.535 0-.922-.254-1.148-.757l-1.246-3.329h-8.953l-1.246 3.329c-.23.503-.614.757-1.153.757zm11.324-17.965l-3.058 8.739h6.117zm15.14 17.965a.843.843 0 01-.612-.27.8.8 0 01-.247-.585V19.316a.83.83 0 01.247-.613.882.882 0 01.613-.246h8.117c2.66 0 4.648.45 5.969 1.348 1.304.883 1.957 2.136 1.957 3.77 0 .8-.156 1.476-.465 2.03-.324.555-.781 1.036-1.371 1.446.75.39 1.34.922 1.762 1.59.425.687.636 1.468.636 2.351 0 1.68-.66 2.977-1.98 3.89-1.336.93-3.336 1.395-5.992 1.395zm4.966-10.89h3.277c1.465 0 2.2-.547 2.2-1.64 0-.556-.188-.938-.563-1.153-.375-.227-.922-.34-1.637-.34h-3.277zm0 7.097h3.347c1.485 0 2.227-.515 2.227-1.543 0-.57-.18-.988-.54-1.246-.374-.246-.937-.367-1.687-.367h-3.347zm20.468 3.793a.901.901 0 01-.632-.246.821.821 0 01-.246-.61V23.11h-5.114a.973.973 0 01-.633-.218.866.866 0 01-.246-.637v-2.938a.83.83 0 01.246-.613.901.901 0 01.633-.246h16.168a.83.83 0 01.613.246c.16.164.243.367.243.613v2.938c0 .226-.082.43-.243.61a.83.83 0 01-.613.245h-5.137v12.313a.812.812 0 01-.242.586.794.794 0 01-.613.27zm22.063.344c-2.887 0-5.094-.668-6.629-2.008-1.547-1.34-2.387-3.238-2.52-5.703-.03-.293-.046-.808-.046-1.543 0-.734.015-1.246.047-1.543.132-2.414.988-4.304 2.57-5.676 1.597-1.355 3.789-2.03 6.578-2.03 2.773 0 4.957.675 6.555 2.03 1.582 1.372 2.437 3.262 2.566 5.676.05.59.074 1.102.074 1.543 0 .442-.023.957-.074 1.543-.129 2.465-.969 4.363-2.516 5.703-1.535 1.34-3.734 2.008-6.605 2.008zm0-4.309c.93 0 1.621-.292 2.078-.882.457-.586.719-1.485.785-2.692.031-.226.047-.683.047-1.37 0-.684-.016-1.141-.047-1.372-.066-1.191-.328-2.078-.785-2.668-.457-.601-1.148-.906-2.078-.906-.945 0-1.649.305-2.102.906-.457.59-.718 1.477-.785 2.668l-.023 1.371.023 1.371c.067 1.207.328 2.106.785 2.692.453.59 1.157.883 2.102.883zm13.305 3.965a.767.767 0 01-.586-.27.767.767 0 01-.27-.585V19.316c0-.246.09-.449.27-.613a.8.8 0 01.586-.246h15.922c.261 0 .464.082.613.246.16.164.242.367.242.613v16.106a.812.812 0 01-.242.586c-.149.18-.352.27-.613.27h-4.282a.767.767 0 01-.586-.27.767.767 0 01-.27-.586V23.109h-5.6v12.313c0 .242-.087.45-.266.61a.86.86 0 01-.637.245zm21.742 6.512a.901.901 0 01-.633-.246.828.828 0 01-.246-.61V19.317a.83.83 0 01.246-.613.901.901 0 01.633-.246h4.086a.83.83 0 01.613.246c.16.164.242.367.242.613v1.223c1.223-1.617 2.992-2.422 5.309-2.422 2.219 0 3.953.692 5.207 2.078 1.273 1.371 1.957 3.34 2.055 5.899.02.297.027.718.027 1.273 0 .555-.008.988-.027 1.297-.098 2.465-.782 4.406-2.055 5.828-1.285 1.418-3.024 2.13-5.207 2.13-2.219 0-3.875-.75-4.965-2.255v7.567a.828.828 0 01-.246.609.828.828 0 01-.61.246zm8.27-10.941c1.027 0 1.757-.301 2.199-.907.441-.601.695-1.445.757-2.52.036-.23.051-.581.051-1.054 0-.472-.015-.824-.05-1.05-.063-1.079-.317-1.919-.758-2.524-.442-.602-1.172-.902-2.2-.902-.996 0-1.73.308-2.203.93-.472.636-.734 1.425-.781 2.37-.035.313-.05.754-.05 1.325 0 .539.015.953.05 1.246.047.898.316 1.64.805 2.23.492.57 1.214.856 2.18.856zm21.105 4.773c-2.871 0-5.078-.668-6.63-2.008-1.53-1.34-2.362-3.238-2.491-5.703-.035-.293-.051-.808-.051-1.543 0-.734.016-1.246.05-1.543.13-2.414.985-4.304 2.567-5.676 1.598-1.355 3.785-2.03 6.555-2.03 2.789 0 4.972.675 6.554 2.03 1.598 1.372 2.461 3.262 2.594 5.676.047.59.074 1.102.074 1.543 0 .442-.027.957-.074 1.543-.133 2.465-.972 4.363-2.52 5.703-1.53 1.34-3.741 2.008-6.628 2.008zm0-4.309c.945 0 1.648-.292 2.105-.882.453-.586.715-1.485.782-2.692.015-.226.023-.683.023-1.37 0-.684-.008-1.141-.023-1.372-.067-1.191-.329-2.078-.782-2.668-.457-.601-1.16-.906-2.105-.906-.93 0-1.621.305-2.078.906-.457.59-.72 1.477-.782 2.668l-.05 1.371.05 1.371c.063 1.207.325 2.106.782 2.692.457.59 1.148.883 2.078.883zM227.59 42.79a.803.803 0 01-.59-.246.789.789 0 01-.266-.61v-5.656c-3.05 0-5.375-.644-6.972-1.933-1.598-1.29-2.469-3.133-2.617-5.532a32.907 32.907 0 01-.024-1.445c0-.668.008-1.148.024-1.441.148-2.352 1.035-4.188 2.667-5.508 1.645-1.309 3.954-1.961 6.922-1.961v-5.652a.79.79 0 01.266-.614.799.799 0 01.59-.242h4.277c.262 0 .465.078.613.242a.83.83 0 01.247.614v5.652c2.964 0 5.273.652 6.918 1.961 1.648 1.32 2.539 3.156 2.667 5.508.047.601.075 1.082.075 1.441 0 .328-.028.809-.075 1.445-.128 2.399-.996 4.243-2.593 5.532-1.598 1.289-3.93 1.933-6.992 1.933v5.657a.828.828 0 01-.247.609c-.148.164-.351.246-.613.246zm-.809-10.82v-9.203c-1.254 0-2.168.293-2.738.882-.57.586-.883 1.485-.93 2.692l-.05 1.055c0 1.644.277 2.82.832 3.523.554.7 1.515 1.05 2.886 1.05zm5.918 0c1.387 0 2.348-.36 2.887-1.074.539-.704.809-1.872.809-3.5 0-.493-.008-.844-.028-1.055-.047-1.238-.363-2.145-.953-2.715-.586-.574-1.492-.86-2.715-.86zm30.426-13.512c.23 0 .434.082.613.246.164.164.242.36.242.586v16.133a.84.84 0 01-.218.586.82.82 0 01-.637.27h-4.277a.91.91 0 01-.637-.247.821.821 0 01-.246-.61v-9.276l-6.676 9.593c-.246.36-.562.54-.953.54h-3.84a.77.77 0 01-.59-.27.767.767 0 01-.27-.586V19.316c0-.246.09-.449.27-.613a.803.803 0 01.59-.246h4.277a.91.91 0 01.637.246.83.83 0 01.246.613v9.278l6.676-9.598c.262-.36.586-.539.977-.539zm0 0M23.352 27.578a3.332 3.332 0 001.664-6.215 3.323 3.323 0 00-4.016.532 3.334 3.334 0 000 4.707 3.317 3.317 0 002.352.976zm-1.52-4.851c.402-.403.95-.633 1.52-.63.574 0 1.113.223 1.52.63a2.146 2.146 0 010 3.043 2.137 2.137 0 01-3.04 0 2.117 2.117 0 01-.629-1.52 2.126 2.126 0 01.629-1.523zm-3.09 6.324a2.346 2.346 0 00-1.664-.684c-.601 0-1.203.227-1.664.684L4.043 40.438a2.362 2.362 0 000 3.328l7.648 7.652c.442.441 1.04.691 1.664.687.602 0 1.207-.226 1.665-.687l11.37-11.379a2.36 2.36 0 000-3.332zm-4.555 21.535a1.17 1.17 0 01-.832.344 1.17 1.17 0 01-.832-.344L4.875 42.93a1.157 1.157 0 01-.34-.828c0-.317.121-.614.34-.836l5.27-5.274 1.523 1.52-.566.566 6.273 6.277.563-.566 1.523 1.523zm-1.421-12.508l.296-.297 4.61 4.614-.297.296zm12.796 1.129L20.29 44.48l-1.52-1.523.563-.562-6.27-6.278-.566.563-1.52-1.52 5.27-5.277c.223-.219.516-.34.832-.34.317 0 .613.121.832.34l7.649 7.656c.46.461.46 1.207.003 1.668zM55.84 3.41L53.19.758a1.18 1.18 0 00-1.664 0L32.81 19.496c-.016.016-.028.031-.043.05l-1.184-1.183-3.133 3.14-.937-.94a5.873 5.873 0 00-4.16-1.715 5.857 5.857 0 00-4.157 1.715L2.027 37.742c-2.285 2.288-2.285 6.034 0 8.323l7.368 7.368a5.845 5.845 0 004.156 1.718 5.852 5.852 0 004.156-1.718l17.168-17.176c2.285-2.29 2.285-6.035 0-8.324l-.941-.938 3.136-3.14-.004-.004c.016-.016.036-.028.051-.043L55.84 5.074a1.181 1.181 0 000-1.664zM34.043 28.766a4.722 4.722 0 010 6.66L16.879 52.602a4.667 4.667 0 01-3.328 1.37 4.65 4.65 0 01-3.324-1.37L2.859 45.23a4.653 4.653 0 01-1.367-3.328 4.667 4.667 0 011.367-3.328l17.168-17.18a4.67 4.67 0 013.325-1.37c1.261 0 2.441.488 3.328 1.37zm-.89-2.649l-3.825-3.828 2.254-2.258 3.828 3.824zm3.132-3.14l-2.644-2.649L52.355 1.594h.004V1.59l1.106 1.105-3.457 3.461-.785-.785-2.157 2.156v1.57l-2.789 2.794h-1.57l-1.125 1.132v1.567l-4.902 4.906-.367-.371-.833.832 1.2 1.203 6.078-6.082v-1.57l.437-.438h1.567l3.48-3.484v-1.57l.98-.98.786.784 4.289-4.293.71.715zM9.633 41.902a2.78 2.78 0 000 3.926 2.77 2.77 0 003.918 0l-3.266-3.27a1.85 1.85 0 012.613-.003 1.85 1.85 0 010 2.617l.657.656a2.776 2.776 0 00-.004-3.926 2.77 2.77 0 00-3.918 0zm1.89 3.559a1.575 1.575 0 01-1.058-.469A1.571 1.571 0 0110 43.934zm5.75-11.207l.657.652a1.853 1.853 0 012.613 0 1.858 1.858 0 010 2.617l-.39.391-3.27-3.27a2.774 2.774 0 00-.598 3.024 2.776 2.776 0 002.559 1.715 2.753 2.753 0 001.672-.578l.027.023.262-.258v-.004l.39-.39a2.775 2.775 0 000-3.922 2.775 2.775 0 00-3.922 0zm.442 3.484a1.607 1.607 0 01-.465-1.062l1.523 1.527a1.59 1.59 0 01-1.058-.465zm0 0"/></g></svg>